<svg width="107" height="107" viewBox="0 0 107 107" fill="none" xmlns="http://www.w3.org/2000/svg">
<path fill-rule="evenodd" clip-rule="evenodd" d="M74.9268 57.4502C82.7909 57.4503 89.1865 63.9038 89.1865 71.8896C89.1864 79.8753 82.7908 86.329 74.9268 86.3291C67.0626 86.3291 60.6672 79.8754 60.667 71.8896C60.667 63.9038 67.0625 57.4502 74.9268 57.4502ZM74.9258 59.9951C74.3735 59.9951 73.9258 60.4428 73.9258 60.9951V62.752C72.9255 62.9503 72.0066 63.4416 71.2852 64.1631C70.5637 64.8848 70.0721 65.8044 69.8721 66.8057C69.672 67.8071 69.7726 68.8457 70.1611 69.79C70.5497 70.7344 71.2087 71.5431 72.0557 72.1123C72.8714 72.6604 73.8261 72.9597 74.8066 72.9824C74.8457 72.9871 74.8854 72.9912 74.9258 72.9912H74.9287L75.1621 73C75.7033 73.0408 76.2262 73.2217 76.6797 73.5264C77.198 73.8746 77.6024 74.369 77.8408 74.9482C78.0793 75.5276 78.1413 76.1655 78.0186 76.7803C77.8958 77.395 77.5943 77.9593 77.1523 78.4014C76.7104 78.8434 76.1476 79.1435 75.5361 79.2646C75.3744 79.2967 75.2112 79.3149 75.0479 79.3213C75.0078 79.3164 74.9671 79.3135 74.9258 79.3135C74.8855 79.3135 74.8457 79.3157 74.8066 79.3203C74.4335 79.3062 74.0633 79.2274 73.7148 79.082C73.1393 78.8418 72.6469 78.4354 72.3008 77.9141C71.9546 77.3927 71.7705 76.7793 71.7715 76.1523C71.7723 75.6003 71.3255 75.1524 70.7734 75.1514C70.2212 75.1505 69.7724 75.5971 69.7715 76.1494C69.7699 77.1707 70.0701 78.17 70.6348 79.0205C71.1995 79.8711 72.0037 80.5349 72.9453 80.9277C73.2628 81.0602 73.5917 81.1564 73.9258 81.2227V82.7832C73.9258 83.3355 74.3735 83.7832 74.9258 83.7832C75.4781 83.7832 75.9258 83.3355 75.9258 82.7832V81.2256C76.926 81.0273 77.845 80.5369 78.5664 79.8154C79.288 79.0936 79.7795 78.1733 79.9795 77.1719C80.1794 76.1704 80.079 75.1318 79.6904 74.1875C79.3018 73.2432 78.642 72.4353 77.7949 71.8662C76.9815 71.3197 76.0304 71.0193 75.0527 70.9951C75.0112 70.9898 74.9688 70.9873 74.9258 70.9873H74.9219C74.2986 70.9865 73.6891 70.8004 73.1709 70.4521C72.6527 70.1039 72.2491 69.6086 72.0107 69.0293C71.7724 68.4499 71.7102 67.812 71.833 67.1973C71.9558 66.5828 72.2575 66.0191 72.6992 65.5771C73.1412 65.1351 73.704 64.835 74.3154 64.7139C74.9269 64.5928 75.561 64.6563 76.1367 64.8965C76.7122 65.1367 77.2047 65.5423 77.5508 66.0635C77.8969 66.5849 78.0811 67.1982 78.0801 67.8252C78.0792 68.3774 78.526 68.8261 79.0781 68.8271C79.6302 68.828 80.0789 68.3812 80.0801 67.8291C80.0817 66.8079 79.7813 65.8085 79.2168 64.958C78.6521 64.1074 77.8479 63.4427 76.9062 63.0498C76.5888 62.9174 76.2599 62.8202 75.9258 62.7539V60.9951C75.9258 60.4428 75.4781 59.9951 74.9258 59.9951Z" fill="#E95D2C"/>
<path d="M38.0918 46.6445C39.2541 46.6446 40.3696 47.1084 41.1924 47.9336C42.015 48.7588 42.4774 49.8786 42.4775 51.0469C42.4775 52.2153 42.0152 53.3358 41.1924 54.1611C40.3696 54.9864 39.2541 55.4492 38.0918 55.4492H29.1758V46.6445H38.0918Z" fill="#E95D2C"/>
<path d="M38.0811 35.8398L38.2969 35.8477C39.3726 35.9118 40.3908 36.371 41.1533 37.1436C41.9666 37.9677 42.4238 39.0813 42.4238 40.2422C42.4238 41.4031 41.9667 42.5167 41.1533 43.3408C40.3401 44.1649 39.2357 44.6327 38.0811 44.6445H29.1758V35.8398H38.0811Z" fill="#E95D2C"/>
<path fill-rule="evenodd" clip-rule="evenodd" d="M34.7979 26.377C45.7427 26.377 54.6357 35.3576 54.6357 46.46C54.6355 57.5621 45.7426 66.542 34.7979 66.542C23.8533 66.5417 14.9612 57.562 14.9609 46.46C14.9609 35.3578 23.8532 26.3772 34.7979 26.377ZM37.2598 30.2373C36.7076 30.2374 36.2598 30.6851 36.2598 31.2373V33.8398H32.4346V31.2373C32.4346 30.685 31.9869 30.2373 31.4346 30.2373C30.8823 30.2373 30.4346 30.685 30.4346 31.2373V33.8398H25.1221C24.5698 33.8398 24.1221 34.2876 24.1221 34.8398C24.1221 35.3921 24.5698 35.8398 25.1221 35.8398H27.1758V55.4502H25.1221C24.5698 55.4502 24.1221 55.8979 24.1221 56.4502C24.1223 57.0023 24.5699 57.4502 25.1221 57.4502H28.4932C28.4987 57.4502 28.5042 57.4493 28.5098 57.4492H30.4346V60.1729C30.4346 60.7251 30.8823 61.1729 31.4346 61.1729C31.9868 61.1729 32.4345 60.7251 32.4346 60.1729V57.4492H36.2598V60.1729C36.2598 60.725 36.7076 61.1728 37.2598 61.1729C37.812 61.1729 38.2597 60.7251 38.2598 60.1729V57.4443C39.8935 57.4012 41.4507 56.7345 42.6084 55.5732C43.8057 54.3723 44.4775 52.7439 44.4775 51.0469C44.4774 49.35 43.8055 47.7223 42.6084 46.5215C42.267 46.179 41.8899 45.8805 41.4873 45.627C41.8782 45.3752 42.2453 45.0823 42.5771 44.7461C43.7605 43.547 44.4238 41.9281 44.4238 40.2422C44.4238 38.5565 43.7603 36.9383 42.5771 35.7393C41.4308 34.5776 39.8856 33.9016 38.2598 33.8447V31.2373C38.2598 30.685 37.812 30.2373 37.2598 30.2373Z" fill="#E95D2C"/>
<path fill-rule="evenodd" clip-rule="evenodd" d="M87 0C98.0457 0 107 8.95431 107 20V87C107 98.0457 98.0457 107 87 107H20C8.95431 107 0 98.0457 0 87V20C0 8.95431 8.95431 0 20 0H87ZM74.9268 55.4502C65.9358 55.4502 58.667 62.8214 58.667 71.8896C58.6672 80.9578 65.9359 88.3291 74.9268 88.3291C83.9175 88.329 91.1864 80.9577 91.1865 71.8896C91.1865 62.8215 83.9176 55.4503 74.9268 55.4502ZM32.7998 70.4434C32.2475 70.4434 31.7998 70.8911 31.7998 71.4434V77.7578C31.7998 78.3101 32.2475 78.7578 32.7998 78.7578C33.352 78.7577 33.7998 78.3101 33.7998 77.7578V74.9385C35.4105 77.1622 37.3765 79.1145 39.6279 80.71C42.8529 82.9953 46.5703 84.4869 50.4775 85.0625C51.0237 85.1427 51.5318 84.7649 51.6123 84.2188C51.6928 83.6724 51.3149 83.1645 50.7686 83.084C47.1732 82.5543 43.7524 81.1815 40.7842 79.0781C38.277 77.3014 36.154 75.0438 34.5303 72.4434H38.8008C39.3529 72.4433 39.8005 71.9954 39.8008 71.4434C39.8008 70.8911 39.353 70.4434 38.8008 70.4434H32.7998ZM34.7979 24.377C22.7266 24.3772 12.9609 34.2753 12.9609 46.46C12.9612 58.6444 22.7268 68.5417 34.7979 68.542C46.8692 68.542 56.6355 58.6446 56.6357 46.46C56.6357 34.2752 46.8693 24.377 34.7979 24.377ZM57.54 35.25C56.993 35.175 56.4883 35.5575 56.4131 36.1045C56.3381 36.6517 56.7214 37.1564 57.2686 37.2314C60.4487 37.6675 63.5036 38.7632 66.2383 40.4492C68.416 41.7919 70.3518 43.4867 71.9717 45.459H69.3828C68.8305 45.459 68.3828 45.9067 68.3828 46.459C68.3828 47.0113 68.8305 47.459 69.3828 47.459H73.9756C74.1917 47.459 74.3912 47.389 74.5547 47.2725C74.5583 47.2699 74.5619 47.2673 74.5654 47.2646C74.6462 47.2055 74.7176 47.135 74.7773 47.0547C74.7794 47.0519 74.7811 47.0487 74.7832 47.0459C74.8723 46.9236 74.9348 46.7814 74.9609 46.626C74.962 46.6198 74.9629 46.6136 74.9639 46.6074C74.9711 46.5589 74.9756 46.5095 74.9756 46.459V41.3506C74.9756 40.7983 74.5279 40.3506 73.9756 40.3506C73.4234 40.3508 72.9756 40.7984 72.9756 41.3506V43.5527C71.3313 41.6811 69.4165 40.0593 67.2881 38.7471C64.3165 36.9149 60.9964 35.724 57.54 35.25Z" fill="#E95D2C"/>
<path fill-rule="evenodd" clip-rule="evenodd" d="M34.7979 24.377C22.7266 24.3772 12.9609 34.2753 12.9609 46.46C12.9612 58.6444 22.7268 68.5417 34.7979 68.542C46.8692 68.542 56.6355 58.6446 56.6357 46.46C56.6357 34.2752 46.8693 24.377 34.7979 24.377ZM54.6357 46.46C54.6357 35.3576 45.7427 26.377 34.7979 26.377C23.8532 26.3772 14.9609 35.3578 14.9609 46.46C14.9612 57.562 23.8533 66.5417 34.7979 66.542C45.7426 66.542 54.6355 57.5621 54.6357 46.46Z" fill="white"/>
<path fill-rule="evenodd" clip-rule="evenodd" d="M37.2598 30.2373C36.7076 30.2374 36.2598 30.6851 36.2598 31.2373V33.8398H32.4346V31.2373C32.4346 30.685 31.9869 30.2373 31.4346 30.2373C30.8823 30.2373 30.4346 30.685 30.4346 31.2373V33.8398H25.1221C24.5698 33.8398 24.1221 34.2876 24.1221 34.8398C24.1221 35.3921 24.5698 35.8398 25.1221 35.8398H27.1758V55.4502H25.1221C24.5698 55.4502 24.1221 55.8979 24.1221 56.4502C24.1223 57.0023 24.5699 57.4502 25.1221 57.4502H28.4932C28.4987 57.4502 28.5042 57.4493 28.5098 57.4492H30.4346V60.1729C30.4346 60.7251 30.8823 61.1729 31.4346 61.1729C31.9868 61.1729 32.4345 60.7251 32.4346 60.1729V57.4492H36.2598V60.1729C36.2598 60.725 36.7076 61.1728 37.2598 61.1729C37.812 61.1729 38.2597 60.7251 38.2598 60.1729V57.4443C39.8935 57.4012 41.4507 56.7345 42.6084 55.5732C43.8057 54.3723 44.4775 52.7439 44.4775 51.0469C44.4774 49.35 43.8055 47.7223 42.6084 46.5215C42.267 46.179 41.8899 45.8805 41.4873 45.627C41.8782 45.3752 42.2453 45.0823 42.5771 44.7461C43.7605 43.547 44.4238 41.9281 44.4238 40.2422C44.4238 38.5565 43.7603 36.9383 42.5771 35.7393C41.4308 34.5776 39.8856 33.9016 38.2598 33.8447V31.2373C38.2598 30.685 37.812 30.2373 37.2598 30.2373ZM41.1924 47.9336C40.3696 47.1084 39.2541 46.6446 38.0918 46.6445H29.1758V55.4492H38.0918C39.2541 55.4492 40.3696 54.9864 41.1924 54.1611C42.0152 53.3358 42.4775 52.2153 42.4775 51.0469C42.4774 49.8786 42.015 48.7588 41.1924 47.9336ZM38.2969 35.8477L38.0811 35.8398H29.1758V44.6445H38.0811C39.2357 44.6327 40.3401 44.1649 41.1533 43.3408C41.9667 42.5167 42.4238 41.4031 42.4238 40.2422C42.4238 39.0813 41.9666 37.9677 41.1533 37.1436C40.3908 36.371 39.3726 35.9118 38.2969 35.8477Z" fill="white"/>
<path d="M32.7998 70.4434C32.2475 70.4434 31.7998 70.8911 31.7998 71.4434V77.7578C31.7998 78.3101 32.2475 78.7578 32.7998 78.7578C33.352 78.7577 33.7998 78.3101 33.7998 77.7578V74.9385C35.4105 77.1622 37.3765 79.1145 39.6279 80.71C42.8529 82.9953 46.5703 84.4869 50.4775 85.0625C51.0237 85.1427 51.5318 84.7649 51.6123 84.2188C51.6928 83.6724 51.3149 83.1645 50.7686 83.084C47.1732 82.5543 43.7524 81.1815 40.7842 79.0781C38.277 77.3014 36.154 75.0438 34.5303 72.4434H38.8008C39.3529 72.4433 39.8005 71.9954 39.8008 71.4434C39.8008 70.8911 39.353 70.4434 38.8008 70.4434H32.7998Z" fill="white"/>
<path d="M74.9258 59.9951C74.3735 59.9951 73.9258 60.4428 73.9258 60.9951V62.752C72.9255 62.9503 72.0066 63.4416 71.2852 64.1631C70.5637 64.8848 70.0721 65.8044 69.8721 66.8057C69.672 67.8071 69.7726 68.8457 70.1611 69.79C70.5497 70.7344 71.2087 71.5431 72.0557 72.1123C72.8714 72.6604 73.8261 72.9597 74.8066 72.9824C74.8457 72.9871 74.8854 72.9912 74.9258 72.9912H74.9287L75.1621 73C75.7033 73.0408 76.2262 73.2217 76.6797 73.5264C77.198 73.8746 77.6024 74.369 77.8408 74.9482C78.0793 75.5276 78.1413 76.1655 78.0186 76.7803C77.8958 77.395 77.5943 77.9593 77.1523 78.4014C76.7104 78.8434 76.1476 79.1435 75.5361 79.2646C75.3744 79.2967 75.2112 79.3149 75.0479 79.3213C75.0078 79.3164 74.9671 79.3135 74.9258 79.3135C74.8855 79.3135 74.8457 79.3157 74.8066 79.3203C74.4335 79.3062 74.0633 79.2274 73.7148 79.082C73.1393 78.8418 72.6469 78.4354 72.3008 77.9141C71.9546 77.3927 71.7705 76.7793 71.7715 76.1523C71.7723 75.6003 71.3255 75.1524 70.7734 75.1514C70.2212 75.1505 69.7724 75.5971 69.7715 76.1494C69.7699 77.1707 70.0701 78.17 70.6348 79.0205C71.1995 79.8711 72.0037 80.5349 72.9453 80.9277C73.2628 81.0602 73.5917 81.1564 73.9258 81.2227V82.7832C73.9258 83.3355 74.3735 83.7832 74.9258 83.7832C75.4781 83.7832 75.9258 83.3355 75.9258 82.7832V81.2256C76.926 81.0273 77.845 80.5369 78.5664 79.8154C79.288 79.0936 79.7795 78.1733 79.9795 77.1719C80.1794 76.1704 80.079 75.1318 79.6904 74.1875C79.3018 73.2432 78.642 72.4353 77.7949 71.8662C76.9815 71.3197 76.0304 71.0193 75.0527 70.9951C75.0112 70.9898 74.9688 70.9873 74.9258 70.9873H74.9219C74.2986 70.9865 73.6891 70.8004 73.1709 70.4521C72.6527 70.1039 72.2491 69.6086 72.0107 69.0293C71.7724 68.4499 71.7102 67.812 71.833 67.1973C71.9558 66.5828 72.2575 66.0191 72.6992 65.5771C73.1412 65.1351 73.704 64.835 74.3154 64.7139C74.9269 64.5928 75.561 64.6563 76.1367 64.8965C76.7122 65.1367 77.2047 65.5423 77.5508 66.0635C77.8969 66.5849 78.0811 67.1982 78.0801 67.8252C78.0792 68.3774 78.526 68.8261 79.0781 68.8271C79.6302 68.828 80.0789 68.3812 80.0801 67.8291C80.0817 66.8079 79.7813 65.8085 79.2168 64.958C78.6521 64.1074 77.8479 63.4427 76.9062 63.0498C76.5888 62.9174 76.2599 62.8202 75.9258 62.7539V60.9951C75.9258 60.4428 75.4781 59.9951 74.9258 59.9951Z" fill="white"/>
<path fill-rule="evenodd" clip-rule="evenodd" d="M74.9268 55.4502C65.9358 55.4502 58.667 62.8214 58.667 71.8896C58.6672 80.9578 65.9359 88.3291 74.9268 88.3291C83.9175 88.329 91.1864 80.9577 91.1865 71.8896C91.1865 62.8215 83.9176 55.4503 74.9268 55.4502ZM89.1865 71.8896C89.1865 63.9038 82.7909 57.4503 74.9268 57.4502C67.0625 57.4502 60.667 63.9038 60.667 71.8896C60.6672 79.8754 67.0626 86.3291 74.9268 86.3291C82.7908 86.329 89.1864 79.8753 89.1865 71.8896Z" fill="white"/>
<path d="M57.54 35.25C56.993 35.175 56.4883 35.5575 56.4131 36.1045C56.3381 36.6517 56.7214 37.1564 57.2686 37.2314C60.4487 37.6675 63.5036 38.7632 66.2383 40.4492C68.416 41.7919 70.3518 43.4867 71.9717 45.459H69.3828C68.8305 45.459 68.3828 45.9067 68.3828 46.459C68.3828 47.0113 68.8305 47.459 69.3828 47.459H73.9756C74.1917 47.459 74.3912 47.389 74.5547 47.2725L74.5654 47.2646C74.6462 47.2055 74.7176 47.135 74.7773 47.0547C74.7794 47.0519 74.7811 47.0487 74.7832 47.0459C74.8723 46.9236 74.9348 46.7814 74.9609 46.626L74.9639 46.6074C74.9711 46.5589 74.9756 46.5095 74.9756 46.459V41.3506C74.9756 40.7983 74.5279 40.3506 73.9756 40.3506C73.4234 40.3508 72.9756 40.7984 72.9756 41.3506V43.5527C71.3313 41.6811 69.4165 40.0593 67.2881 38.7471C64.3165 36.9149 60.9964 35.724 57.54 35.25Z" fill="white"/>
</svg>
