<svg width="108" height="108" viewBox="0 0 108 108" fill="none" xmlns="http://www.w3.org/2000/svg">
<path d="M40.2178 75.1084C40.8324 75.1084 41.3894 75.3581 41.792 75.7607C42.1945 76.1633 42.4433 76.7195 42.4434 77.334C42.4434 77.9487 42.1947 78.5055 41.792 78.9082C41.3894 79.3107 40.8324 79.5596 40.2178 79.5596C39.6033 79.5594 39.047 79.3106 38.6445 78.9082C38.2419 78.5056 37.9932 77.9487 37.9932 77.334C37.9932 76.7194 38.2421 76.1633 38.6445 75.7607C39.0471 75.3582 39.6032 75.1085 40.2178 75.1084Z" fill="#E95D2C"/>
<path fill-rule="evenodd" clip-rule="evenodd" d="M86.9561 86.2363H21.6709V69.916H86.9561V86.2363ZM40.2178 72.1406C38.7841 72.1408 37.4857 72.7224 36.5459 73.6621C35.9441 74.264 35.4905 75.0133 35.2412 75.8506H29.832C29.0127 75.8507 28.3486 76.5156 28.3486 77.335C28.3489 78.1541 29.0128 78.8183 29.832 78.8184H35.2422C35.4915 79.6552 35.9444 80.4042 36.5459 81.0059C37.4857 81.9456 38.7841 82.5272 40.2178 82.5273C41.6516 82.5273 42.9508 81.9457 43.8906 81.0059C44.4921 80.4042 44.945 79.6552 45.1943 78.8184H78.7959C79.615 78.8181 80.279 78.154 80.2793 77.335C80.2793 76.5157 79.6151 75.8508 78.7959 75.8506H45.1953C44.9461 75.0133 44.4924 74.2639 43.8906 73.6621C42.9509 72.7223 41.6517 72.1406 40.2178 72.1406Z" fill="#E95D2C"/>
<path d="M65.9102 45.4346L47.1768 56.2285V34.6406L65.9102 45.4346Z" fill="#E95D2C"/>
<path fill-rule="evenodd" clip-rule="evenodd" d="M76.5693 20.9521C79.4238 20.9521 82.0202 22.121 83.9033 24.0039C85.7864 25.887 86.9561 28.4842 86.9561 31.3389V66.9482H21.6709V31.3389C21.6709 28.4842 22.8405 25.887 24.7236 24.0039C26.6067 22.121 29.2031 20.9521 32.0576 20.9521H76.5693ZM45.6924 30.5967C44.8733 30.5969 44.2092 31.261 44.209 32.0801V58.7705C44.2057 59.0278 44.2695 59.2892 44.4072 59.5283C44.8163 60.2383 45.7236 60.4823 46.4336 60.0732L46.4307 60.0684L69.4873 46.7842C69.7587 46.6604 69.995 46.453 70.1553 46.1748C70.5643 45.4648 70.3203 44.5575 69.6104 44.1484L68.8701 45.4346L69.6055 44.1533L46.5508 30.8701C46.3085 30.6981 46.0121 30.5967 45.6924 30.5967Z" fill="#E95D2C"/>
<path fill-rule="evenodd" clip-rule="evenodd" d="M87.9082 0C98.9537 0.000254212 107.908 8.9545 107.908 20V87.9082C107.908 98.9537 98.9537 107.908 87.9082 107.908H20C8.95431 107.908 0 98.9539 0 87.9082V20C3.97288e-05 8.95434 8.95433 0 20 0H87.9082ZM32.0576 17.9844C28.3838 17.9844 25.0446 19.4867 22.625 21.9062C20.2056 24.3257 18.7042 27.6644 18.7041 31.3379V87.7207C18.7043 88.5399 19.3682 89.204 20.1875 89.2041H88.4395C89.2588 89.2041 89.9227 88.54 89.9229 87.7207V31.3379C89.9227 27.6644 88.4214 24.3257 86.002 21.9062C83.5824 19.4867 80.2431 17.9844 76.5693 17.9844H32.0576Z" fill="#E95D2C"/>
<path fill-rule="evenodd" clip-rule="evenodd" d="M45.6924 30.5967C44.8733 30.5969 44.2092 31.261 44.209 32.0801V58.7705C44.2057 59.0278 44.2695 59.2892 44.4072 59.5283C44.8163 60.2383 45.7236 60.4823 46.4336 60.0732L46.4307 60.0684L69.4873 46.7842C69.7587 46.6604 69.995 46.453 70.1553 46.1748C70.5643 45.4648 70.3203 44.5575 69.6104 44.1484L68.8701 45.4346L69.6055 44.1533L46.5508 30.8701C46.3085 30.6981 46.0121 30.5967 45.6924 30.5967ZM47.1768 56.2285L65.9102 45.4346L47.1768 34.6406V56.2285Z" fill="white"/>
<path fill-rule="evenodd" clip-rule="evenodd" d="M32.0576 17.9844C28.3838 17.9844 25.0446 19.4867 22.625 21.9062C20.2056 24.3257 18.7042 27.6644 18.7041 31.3379V87.7207C18.7043 88.5399 19.3682 89.204 20.1875 89.2041H88.4395C89.2588 89.2041 89.9227 88.54 89.9229 87.7207V31.3379C89.9227 27.6644 88.4214 24.3257 86.002 21.9062C83.5824 19.4867 80.2431 17.9844 76.5693 17.9844H32.0576ZM21.6709 86.2363H86.9561V69.916H21.6709V86.2363ZM83.9033 24.0039C82.0202 22.121 79.4238 20.9521 76.5693 20.9521H32.0576C29.2031 20.9521 26.6067 22.121 24.7236 24.0039C22.8405 25.887 21.6709 28.4842 21.6709 31.3389V66.9482H86.9561V31.3389C86.9561 28.4842 85.7864 25.887 83.9033 24.0039Z" fill="white"/>
<path fill-rule="evenodd" clip-rule="evenodd" d="M40.2178 72.1406C38.7841 72.1408 37.4857 72.7224 36.5459 73.6621C35.9441 74.264 35.4905 75.0133 35.2412 75.8506H29.832C29.0127 75.8507 28.3486 76.5156 28.3486 77.335C28.3489 78.1541 29.0128 78.8183 29.832 78.8184H35.2422C35.4915 79.6552 35.9444 80.4042 36.5459 81.0059C37.4857 81.9456 38.7841 82.5272 40.2178 82.5273C41.6516 82.5273 42.9508 81.9457 43.8906 81.0059C44.4921 80.4042 44.945 79.6552 45.1943 78.8184H78.7959C79.615 78.8181 80.279 78.154 80.2793 77.335C80.2793 76.5157 79.6151 75.8508 78.7959 75.8506H45.1953C44.9461 75.0133 44.4924 74.2639 43.8906 73.6621C42.9509 72.7223 41.6517 72.1406 40.2178 72.1406ZM41.792 75.7607C41.3894 75.3581 40.8324 75.1084 40.2178 75.1084C39.6032 75.1085 39.0471 75.3582 38.6445 75.7607C38.2421 76.1633 37.9932 76.7194 37.9932 77.334C37.9932 77.9487 38.2419 78.5056 38.6445 78.9082C39.047 79.3106 39.6033 79.5594 40.2178 79.5596C40.8324 79.5596 41.3894 79.3107 41.792 78.9082C42.1947 78.5055 42.4434 77.9487 42.4434 77.334C42.4433 76.7195 42.1945 76.1633 41.792 75.7607Z" fill="white"/>
</svg>
