<svg width="107" height="107" viewBox="0 0 107 107" fill="none" xmlns="http://www.w3.org/2000/svg">
<path d="M0 20.0264C0 8.98068 8.95431 0.0263672 20 0.0263672H86.9737C98.0194 0.0263672 106.974 8.98067 106.974 20.0264V87C106.974 98.0457 98.0194 107 86.9737 107H20C8.95432 107 0 98.0457 0 87.0001V20.0264Z" fill="#E95D2C"/>
<path d="M80.0501 23.5605H27.5171C25.3259 23.5605 23.2243 24.431 21.6749 25.9805C20.1254 27.5299 19.2549 29.6315 19.2549 31.8228V64.625C19.2549 66.8163 20.1254 68.9179 21.6749 70.4673C23.2243 72.0168 25.3259 72.8873 27.5171 72.8873H51.3173V77.82H38.9856C38.3315 77.82 37.7042 78.0798 37.2416 78.5423C36.7791 79.0049 36.5193 79.6322 36.5193 80.2863C36.5193 80.9404 36.7791 81.5677 37.2416 82.0303C37.7042 82.4928 38.3315 82.7526 38.9856 82.7526H68.5817C69.2358 82.7526 69.8631 82.4928 70.3256 82.0303C70.7882 81.5677 71.048 80.9404 71.048 80.2863C71.048 79.6322 70.7882 79.0049 70.3256 78.5423C69.8631 78.0798 69.2358 77.82 68.5817 77.82H56.25V72.8873H80.0501C82.2414 72.8873 84.3429 72.0168 85.8924 70.4673C87.4419 68.9179 88.3124 66.8163 88.3124 64.625V31.8228C88.3124 29.6315 87.4419 27.5299 85.8924 25.9805C84.3429 24.431 82.2414 23.5605 80.0501 23.5605ZM83.3797 64.625C83.3732 65.5061 83.0204 66.3492 82.3973 66.9723C81.7743 67.5953 80.9312 67.9482 80.0501 67.9546H27.5171C26.6361 67.9482 25.7929 67.5953 25.1699 66.9723C24.5469 66.3492 24.194 65.5061 24.1876 64.625V31.8228C24.194 30.9417 24.5469 30.0986 25.1699 29.4755C25.7929 28.8525 26.6361 28.4997 27.5171 28.4932H80.0501C80.9312 28.4997 81.7743 28.8525 82.3973 29.4755C83.0204 30.0986 83.3732 30.9417 83.3797 31.8228V64.625Z" fill="white"/>
<path d="M68.5821 81.7529L68.5817 82.7526H38.9856L38.9854 81.7529H68.5821ZM70.0479 80.2861C70.0478 79.8973 69.8931 79.5239 69.6182 79.249C69.3433 78.9743 68.9706 78.8204 68.5821 78.8203H55.25V71.8877H80.0498L80.0501 72.8873H56.25V77.82H68.5817C69.2358 77.82 69.8631 78.0798 70.3256 78.5423C70.7882 79.0049 71.048 79.6322 71.048 80.2863C71.048 80.9404 70.7882 81.5677 70.3256 82.0303C69.8631 82.4928 69.2358 82.7526 68.5817 82.7526L68.5821 81.7529C68.9707 81.7528 69.3433 81.598 69.6182 81.3232C69.8932 81.0482 70.0479 80.675 70.0479 80.2861ZM36.5193 80.2863C36.5193 79.6322 36.7791 79.0049 37.2416 78.5423C37.6464 78.1375 38.1775 77.888 38.7422 77.832L38.9856 77.82H51.3173V72.8873H27.5171L27.5176 71.8877H52.3174V78.8203H38.9854C38.5966 78.8204 38.2232 78.9741 37.9483 79.249C37.6733 79.5239 37.5196 79.8973 37.5196 80.2861C37.5196 80.6749 37.6734 81.0482 37.9483 81.3232C38.2232 81.5982 38.5966 81.7528 38.9854 81.7529L38.9856 82.7526L38.7422 82.7402C38.1775 82.6842 37.6464 82.4351 37.2416 82.0303C36.8371 81.6256 36.5874 81.0947 36.5313 80.5303L36.5193 80.2863ZM87.3125 64.625V31.8232C87.3125 29.8972 86.5475 28.0494 85.1856 26.6875C83.8236 25.3255 81.9759 24.5605 80.0498 24.5605H27.5176C25.5915 24.5605 23.7438 25.3255 22.3819 26.6875C21.0199 28.0494 20.2549 29.8972 20.2549 31.8232V64.625C20.2549 66.5509 21.0201 68.3978 22.3819 69.7597C23.7438 71.1217 25.5915 71.8877 27.5176 71.8877L27.5171 72.8873L27.1074 72.8769C25.2015 72.7824 23.3863 72.0308 21.9717 70.75L21.6749 70.4673C20.1254 68.9179 19.2549 66.8163 19.2549 64.625V31.8228C19.2549 29.6315 20.1254 27.5299 21.6749 25.9805C23.1275 24.5278 25.0653 23.6716 27.1074 23.5703L27.5171 23.5605H80.0501C82.2414 23.5605 84.3429 24.431 85.8924 25.9805C87.4419 27.5299 88.3124 29.6315 88.3124 31.8228V64.625L88.3018 65.0351C88.2004 67.0771 87.3449 69.0148 85.8924 70.4673L85.5957 70.75C84.1812 72.0308 82.3659 72.7823 80.46 72.8769L80.0501 72.8873L80.0498 71.8877C81.9759 71.8877 83.8236 71.1217 85.1856 69.7597C86.5473 68.3978 87.3125 66.5509 87.3125 64.625ZM83.3797 31.8228C83.3736 30.9967 83.063 30.2039 82.5108 29.5947L82.3973 29.4755C81.7743 28.8525 80.9312 28.4997 80.0501 28.4932H27.5171C26.6361 28.4997 25.7929 28.8525 25.1699 29.4755L25.0567 29.5947C24.5044 30.204 24.1936 30.9966 24.1876 31.8228V64.625C24.194 65.5061 24.5469 66.3492 25.1699 66.9723C25.754 67.5563 26.5317 67.9029 27.3526 67.9492L27.5171 67.9546H80.0501L80.2149 67.9492C80.9811 67.9059 81.7097 67.6013 82.2783 67.0859L82.3973 66.9723C83.0204 66.3492 83.3732 65.5061 83.3797 64.625V31.8228ZM84.3799 64.6328C84.3714 65.7764 83.9132 66.871 83.1045 67.6797C82.2958 68.4883 81.2012 68.9466 80.0576 68.9551H27.5098C26.3662 68.9467 25.2716 68.4883 24.4629 67.6797C23.6542 66.871 23.196 65.7764 23.1875 64.6328V31.8154C23.1959 30.6717 23.6542 29.5773 24.4629 28.7685C25.2717 27.9598 26.3661 27.5015 27.5098 27.4931H80.0576C81.2013 27.5016 82.2958 27.9598 83.1045 28.7685C83.9132 29.5773 84.3715 30.6717 84.3799 31.8154V64.6328Z" fill="#E95D2C"/>
<path d="M63.9203 38.3585H45.8667L44.2142 35.4976C43.8139 34.8537 43.2537 34.3244 42.5881 33.9613C41.9225 33.5983 41.1742 33.4138 40.4161 33.4258H36.5193C35.8652 33.4258 35.2378 33.6857 34.7753 34.1482C34.3128 34.6108 34.0529 35.2381 34.0529 35.8922C34.0529 36.5463 34.3128 37.1736 34.7753 37.6362C35.2378 38.0987 35.8652 38.3585 36.5193 38.3585H40.1448L41.6739 40.9728L42.6111 50.6902C42.7892 52.0957 43.489 53.3829 44.5717 54.2965C45.6544 55.2102 47.0409 55.6836 48.4563 55.6229H60.4427C61.6526 55.6485 62.839 55.2866 63.8285 54.5899C64.8181 53.8933 65.5589 52.8984 65.9427 51.7507L68.2857 43.7105C68.465 43.1097 68.5003 42.4752 68.3889 41.8582C68.2775 41.2412 68.0225 40.6591 67.6445 40.159C67.2041 39.5925 66.639 39.1353 65.993 38.823C65.3471 38.5107 64.6377 38.3518 63.9203 38.3585ZM61.1826 50.3696C61.1826 50.3696 60.8867 50.6902 60.4181 50.6902H48.4563C48.2743 50.7105 48.0902 50.6797 47.9247 50.6013C47.7592 50.5229 47.6187 50.4 47.5191 50.2463L46.8532 43.2912H63.279L61.1826 50.3696Z" fill="white"/>
<path d="M64.6184 42.2915L62.1418 50.6538L62.0754 50.8765L61.9172 51.0483L61.9133 51.0523C61.9117 51.0539 61.9101 51.0563 61.9084 51.0581L61.8664 51.1001C61.8436 51.1223 61.8143 51.1494 61.7795 51.1792C61.7104 51.2384 61.6144 51.3121 61.4934 51.3853C61.2537 51.5302 60.8847 51.6899 60.4182 51.6899H48.4924C48.1504 51.7151 47.807 51.6525 47.4963 51.5054C47.1631 51.3475 46.8804 51.0999 46.6799 50.7905L46.5471 50.5845L45.7531 42.2915H64.6184ZM46.8532 43.2912L47.5191 50.2463C47.6187 50.4 47.7592 50.5229 47.9247 50.6013C48.0902 50.6797 48.2743 50.7105 48.4563 50.6902H60.4181L60.5852 50.6763C60.9559 50.615 61.1826 50.3696 61.1826 50.3696L63.279 43.2912H46.8532ZM34.0529 35.8922C34.053 35.32 34.2521 34.7684 34.6115 34.3296L34.7753 34.1482C35.18 33.7437 35.7111 33.494 36.2756 33.438L36.5193 33.4258H40.4161C41.1742 33.4138 41.9225 33.5983 42.5881 33.9613C43.2537 34.3244 43.8139 34.8537 44.2142 35.4976L45.8667 38.3585H63.9203C64.6377 38.3518 65.3471 38.5107 65.993 38.823C66.639 39.1353 67.2041 39.5925 67.6445 40.159C68.0225 40.6591 68.2775 41.2412 68.3889 41.8582C68.5003 42.4752 68.465 43.1097 68.2857 43.7105L65.9427 51.7507C65.5589 52.8984 64.8181 53.8933 63.8285 54.5899L63.6408 54.7163C62.6907 55.3301 61.5771 55.6469 60.4427 55.6229H48.4563C47.0409 55.6836 45.6544 55.2102 44.5717 54.2965C43.5569 53.4401 42.8782 52.2552 42.6506 50.9526L42.6111 50.6902L41.6739 40.9728L40.1448 38.3585H36.5193L36.5197 37.3589H40.718L42.5373 40.4683L42.6486 40.6577L42.6691 40.8765L43.6047 50.5835C43.7551 51.7328 44.3308 52.7849 45.217 53.5327C46.1079 54.2844 47.2487 54.6735 48.4133 54.6235L48.4348 54.6226H60.4533L60.4641 54.6235C61.4606 54.6446 62.4381 54.3458 63.2531 53.772C64.0662 53.1995 64.6747 52.3824 64.9914 51.4399L67.3254 43.4312L67.3273 43.4243C67.4617 42.974 67.488 42.4981 67.4045 42.0357C67.3218 41.5777 67.1335 41.1454 66.8547 40.773L66.7209 40.6099C66.3973 40.2397 66.0018 39.9378 65.5578 39.7232C65.0505 39.4779 64.4933 39.3536 63.9299 39.3589H45.2893L45.0012 38.8589L43.3557 36.0122C43.0472 35.5213 42.6187 35.1171 42.1096 34.8394C41.5956 34.559 41.0172 34.416 40.4318 34.4253L40.424 34.4263H36.5197C36.131 34.4263 35.7576 34.5802 35.4826 34.855C35.2076 35.13 35.053 35.5032 35.0529 35.8921C35.0529 36.281 35.2076 36.6542 35.4826 36.9292C35.7576 37.2041 36.1309 37.3589 36.5197 37.3589L36.5193 38.3585L36.2756 38.3462C35.7917 38.2982 35.3324 38.1084 34.9562 37.8003L34.7753 37.6362C34.3128 37.1736 34.0529 36.5463 34.0529 35.8922Z" fill="#E95D2C"/>
<path d="M48.8512 58.0895C48.3634 58.0895 47.8866 58.2341 47.481 58.5051C47.0754 58.7761 46.7593 59.1613 46.5726 59.612C46.3859 60.0627 46.3371 60.5586 46.4322 61.037C46.5274 61.5154 46.7623 61.9549 47.1072 62.2998C47.4521 62.6447 47.8916 62.8796 48.37 62.9748C48.8485 63.0699 49.3443 63.0211 49.795 62.8344C50.2457 62.6477 50.6309 62.3316 50.9019 61.926C51.1729 61.5205 51.3175 61.0436 51.3175 60.5558C51.3175 59.9017 51.0577 59.2744 50.5952 58.8119C50.1326 58.3493 49.5053 58.0895 48.8512 58.0895Z" fill="white"/>
<path d="M50.3175 60.5563C50.3175 60.1674 50.1628 59.7942 49.8878 59.5192C49.6129 59.2443 49.2404 59.0896 48.8516 59.0895C48.5616 59.0895 48.2774 59.1754 48.0362 59.3366C47.7952 59.4977 47.6071 59.7269 47.4962 59.9948C47.3853 60.2625 47.3567 60.5572 47.4132 60.8414C47.4697 61.1259 47.6095 61.3873 47.8145 61.5924C48.0196 61.7975 48.2811 61.9372 48.5655 61.9938C48.8498 62.0503 49.1444 62.0216 49.4122 61.9108C49.6801 61.7998 49.9093 61.6118 50.0704 61.3707C50.2314 61.1297 50.3174 60.8461 50.3175 60.5563ZM51.3106 60.7379C51.2793 61.1616 51.139 61.5711 50.9019 61.926L50.795 62.0739C50.5336 62.4086 50.1894 62.6711 49.795 62.8344L49.6241 62.8981C49.2783 63.0122 48.9113 63.048 48.5499 63.0035L48.37 62.9748C47.9514 62.8915 47.563 62.7008 47.2413 62.4235L47.1072 62.2998C46.8055 61.998 46.5881 61.6238 46.4747 61.2145L46.4322 61.037C46.3371 60.5586 46.3859 60.0627 46.5726 59.612C46.7359 59.2177 46.9983 58.8734 47.3331 58.6119L47.481 58.5051C47.8866 58.2341 48.3634 58.0895 48.8512 58.0895L49.0948 58.1012C49.6595 58.1572 50.1904 58.4071 50.5952 58.8119C51.0577 59.2744 51.3175 59.9017 51.3175 60.5558L51.3106 60.7379Z" fill="#E95D2C"/>
<path d="M58.7163 58.0895C58.2285 58.0895 57.7517 58.2341 57.3461 58.5051C56.9405 58.7761 56.6244 59.1613 56.4377 59.612C56.251 60.0627 56.2022 60.5586 56.2974 61.037C56.3925 61.5154 56.6274 61.9549 56.9723 62.2998C57.3173 62.6447 57.7567 62.8796 58.2351 62.9748C58.7136 63.0699 59.2095 63.0211 59.6601 62.8344C60.1108 62.6477 60.496 62.3316 60.767 61.926C61.038 61.5205 61.1826 61.0436 61.1826 60.5558C61.1826 59.9017 60.9228 59.2744 60.4603 58.8119C59.9977 58.3493 59.3704 58.0895 58.7163 58.0895Z" fill="white"/>
<path d="M60.1826 60.5563C60.1826 60.1674 60.0279 59.7942 59.7529 59.5192C59.478 59.2443 59.1055 59.0896 58.7168 59.0895C58.4268 59.0895 58.1425 59.1754 57.9013 59.3366C57.6603 59.4977 57.4723 59.7269 57.3613 59.9948C57.2504 60.2625 57.2218 60.5572 57.2783 60.8414C57.3349 61.1259 57.4746 61.3873 57.6797 61.5924C57.8847 61.7975 58.1462 61.9372 58.4306 61.9938C58.7149 62.0503 59.0095 62.0216 59.2773 61.9108C59.5452 61.7998 59.7744 61.6118 59.9355 61.3707C60.0966 61.1297 60.1825 60.8461 60.1826 60.5563ZM61.1758 60.7379C61.1444 61.1616 61.0042 61.5711 60.767 61.926L60.6601 62.0739C60.3987 62.4086 60.0545 62.6711 59.6601 62.8344L59.4892 62.8981C59.1434 63.0122 58.7765 63.048 58.415 63.0035L58.2351 62.9748C57.8165 62.8915 57.4281 62.7008 57.1064 62.4235L56.9723 62.2998C56.6706 61.998 56.4532 61.6238 56.3398 61.2145L56.2974 61.037C56.2022 60.5586 56.251 60.0627 56.4377 59.612C56.601 59.2177 56.8634 58.8734 57.1982 58.6119L57.3461 58.5051C57.7517 58.2341 58.2285 58.0895 58.7163 58.0895L58.9599 58.1012C59.5246 58.1572 60.0555 58.4071 60.4603 58.8119C60.9228 59.2744 61.1826 59.9017 61.1826 60.5558L61.1758 60.7379Z" fill="#E95D2C"/>
</svg>
